<svg baseProfile="tiny" xmlns="http://www.w3.org/2000/svg" viewBox="0 0 160 40"><g fill="#FFF" stroke="#FFF" stroke-width=".5" stroke-miterlimit="10"><path d="M16.7 14c.3.2.7.4 1.1.4.5 0 1-.2 1.4-.7.1-.2.1-.4-.1-.5-.2-.1-.4-.1-.5.1-.3.4-1 .5-1.4.2-.2-.1-.3-.3-.4-.6 0-.2-.2-.3-.4-.3s-.3.2-.3.4c0 .4.3.7.6 1zM22.3 15.9h.1c.4 0 .8-.1 1.1-.4.2-.1.2-.4 0-.5-.1-.2-.4-.2-.5 0-.4.4-1 .3-1.4-.1-.1-.2-.2-.4-.2-.6 0-.2-.2-.4-.4-.4s-.4.2-.4.4c0 .4.2.8.4 1.1.4.3.8.5 1.3.5z"/><path d="M29.3 19.2c-.8-.6-1.9-.5-2.6.3-.6.8-.5 1.9.3 2.6.2.2.5.3.8.4-.2 6.5-5.6 11.7-12.1 11.7C9 34.1 3.6 28.7 3.6 22c0-4.2 2.1-8 5.7-10.3 1.6-1 3.3-1.6 5.1-1.8h.7v-.4-.2c.1-1.3.7-2.5 1.7-3.3.1.1.3.2.4.4.3.3.6.7.8 1.1.1.3.2.5.3.8l.1.3h.5c1.6 0 3.1.4 4.5 1.3l.2.1.2-.2c.3-.2.5-.4.8-.5.1 0 .2-.1.3-.1.6-.1 1-.2 1.5-.2v.3c0 .8-.2 1.6-.6 2.3l-.1.1-.1.1v.1c.1.3.1.6.1.9 0 .5-.1 1.1-.2 1.6-.3 1.1-1.1 2.1-2 2.8-.9.7-2 1-3.2 1-1.7 0-3.4-.8-4.4-2.2-.1-.1-.1-.2-.2-.2-1.1-1.2-2.9-1.4-4.1-.4l-.1.1c-.7.6-1 1.5-.9 2.5.1 1 .7 1.8 1.6 2.2l9 4.3c.6.3 1 .9 1.1 1.5.2.6.1 1.3-.2 1.8-.7 1.2-2.2 1.6-3.3.9l-1.8-1c.1-.4.1-.8 0-1.2-.2-.5-.5-.9-1-1.2L12.1 23l-.4.6c-.1.3 0 .6.2.8.3.1.6.1.7-.2l3 1.7c.6.3.9 1.1.5 1.7-.3.6-1.1.9-1.7.5l-2.9-1.6c.1-.3 0-.6-.2-.8-.3-.1-.6-.1-.8.2l-.4.6 3.9 2.2c.3.1.6.2.9.2.2 0 .4 0 .6-.1.4-.1.7-.3.9-.6l1.8 1c.5.3 1 .4 1.6.4 1.1 0 2.2-.6 2.7-1.6.4-.7.5-1.6.3-2.4-.2-.8-.7-1.5-1.5-1.9l-9-4.3c-.7-.3-1.1-.9-1.2-1.6-.1-.7.1-1.4.6-1.8l.1-.1c.9-.8 2.3-.6 3.1.3 0 .1.1.1.1.2 1.2 1.6 3 2.5 5 2.5 1.3 0 2.5-.4 3.6-1.2.1-.1.3-.2.4-.3.1-.1.3-.2.4-.3.7-.7 1.2-1.6 1.5-2.6.2-.6.3-1.2.3-1.8 0-.3 0-.6-.1-.9 0 0 0-.1.1-.1l.1-.1c.4-.8.7-1.7.7-2.6V8h-.3c-.7 0-1.3.1-1.9.4-.1.1-.3.1-.4.2-.3.1-.5.3-.8.4-1.4-.8-3-1.2-4.6-1.2-.1-.2-.2-.5-.3-.7-.2-.5-.6-.9-.9-1.3-.2-.2-.5-.4-.7-.6l-.2-.2-.2.2c-1.3.9-2.1 2.3-2.2 3.9h-.1c-2 .2-3.8.8-5.5 1.9-3.8 2.4-6 6.4-6 10.9 0 7.1 5.8 12.8 12.8 12.8 6.9 0 12.6-5.5 12.8-12.4.4-.1.8-.3 1.1-.7.6-.6.5-1.8-.3-2.4zM14.8 9.5zM29 21.3c-.4.5-1.1.5-1.5.2-.5-.4-.5-1.1-.2-1.5.2-.3.5-.4.9-.4.2 0 .5.1.7.2.4.3.5 1 .1 1.5z"/></g><g fill="#FFF"><path d="M51.3 13.8c-.1 0-.2.1-.3.1-.2 0-.4-.1-.5-.3-.2-.4-.5-.9-.8-1.3-.3-.4-.7-.7-1.1-1-.4-.3-.9-.5-1.4-.7s-1.1-.3-1.7-.3c-.6 0-1.2.1-1.8.3-.6.2-1.1.4-1.6.8s-.8.8-1.1 1.3c-.3.5-.4 1.1-.4 1.8 0 .6.1 1.1.3 1.5.2.4.5.8.9 1.1.4.3.8.6 1.2.8.4.2.9.4 1.4.5.6.2 1.2.4 1.8.5l1.8.6c.6.2 1.1.5 1.7.8.5.3 1 .6 1.4 1.1.4.4.7.9.9 1.5.2.6.3 1.3.3 2.1 0 .7-.1 1.3-.3 1.8-.2.6-.4 1.1-.8 1.5-.3.5-.7.9-1.2 1.2-.5.4-1 .7-1.5.9-.5.2-1.1.4-1.8.5-.6.1-1.3.2-2 .2-1 0-1.8-.1-2.6-.4-.7-.2-1.4-.6-1.9-1s-1-.9-1.4-1.4c-.4-.5-.7-1.1-.9-1.7-.1-.2-.1-.3 0-.5s.2-.3.3-.4c.1 0 .2-.1.3-.1.1 0 .2 0 .3.1.1.1.2.1.2.3.2.5.5 1 .9 1.4.3.4.7.8 1.2 1.2.5.3 1 .6 1.6.8.6.2 1.3.3 2 .3.4 0 .9 0 1.3-.1s.8-.2 1.2-.4c.4-.2.8-.4 1.1-.6s.6-.5.9-.9c.2-.3.4-.7.6-1.1.1-.4.2-.9.2-1.4 0-.4 0-.8-.1-1.2-.1-.4-.2-.7-.5-1s-.5-.6-.8-.8c-.3-.2-.8-.5-1.2-.7-.5-.2-1.1-.4-1.7-.7-.7-.2-1.4-.4-2.2-.7-.7-.2-1.3-.4-1.9-.7-.6-.3-1.1-.6-1.6-1.1-.5-.4-.8-.9-1.1-1.6-.3-.6-.4-1.3-.4-2.2 0-.9.2-1.8.6-2.5.4-.7.9-1.3 1.5-1.8s1.4-.9 2.2-1.1c.8-.3 1.7-.4 2.6-.4.7 0 1.4.1 2 .3.6.2 1.2.5 1.8.8.5.4 1 .8 1.4 1.3.4.5.7 1 .9 1.7.1.2.1.3 0 .5 0 .3-.1.4-.2.5zM58.8 30.1c0 .3-.1.5-.3.7-.2.2-.4.3-.7.3-.3 0-.5-.1-.7-.3-.2-.2-.3-.4-.3-.7V9.9c0-.3.1-.5.3-.7.2-.2.4-.3.7-.3.3 0 .5.1.7.3.2.2.3.4.3.7v20.2zM63.8 30.5c-.1.2-.2.3-.3.4-.2.1-.3.1-.4.1-.1 0-.2 0-.3-.1-.2-.1-.3-.2-.4-.3-.1-.1-.1-.3-.1-.4 0-.1 0-.2.1-.3l9.4-20.8c.1-.2.2-.3.4-.3s.3.1.4.3l9.1 20.5c.1.2.1.3.1.4 0 .2-.1.4-.2.5-.1.2-.3.3-.5.4-.1.1-.3.1-.4.1-.2 0-.4-.1-.5-.2-.2-.1-.3-.3-.4-.5L77 24.2H66.5l-2.7 6.3zM71.9 12L67 23h9.5l-4.6-11zM96 27.5l7.6-17.8c.1-.3.3-.5.5-.6.2-.1.5-.2.7-.2.3 0 .5.1.6.2.2.2.3.4.3.6l1.6 20.3c0 .3 0 .5-.2.7-.2.2-.4.3-.7.3-.3 0-.5-.1-.7-.2-.2-.2-.3-.4-.3-.7L104.2 12l-8 18.9c-.1.2-.2.3-.4.3s-.3-.1-.4-.3L87.3 12 86 30.4c0 .2-.1.4-.2.5-.2.1-.3.2-.5.2s-.4-.1-.5-.2c-.1-.2-.2-.3-.2-.5l1.6-20.5c0-.3.1-.5.3-.7.2-.2.4-.2.7-.2.3 0 .5.1.8.2.2.1.4.3.5.6L96 27.5zM132.6 20c0 1.1-.1 2.1-.3 3.1-.2 1-.5 1.9-1 2.7-.4.8-.9 1.6-1.5 2.2-.6.7-1.3 1.2-2.1 1.7s-1.6.8-2.6 1.1c-.9.3-1.9.4-3 .4s-2.1-.1-3-.4c-.9-.2-1.8-.6-2.6-1.1-.8-.5-1.5-1-2.1-1.7-.6-.7-1.1-1.4-1.6-2.2-.4-.8-.8-1.7-1-2.7-.2-1-.3-2-.3-3.1s.1-2.1.3-3.1c.2-1 .6-1.9 1-2.7.4-.8 1-1.6 1.6-2.2.6-.7 1.3-1.2 2.1-1.7s1.6-.8 2.6-1.1c.9-.2 1.9-.4 3-.4 1 0 2 .1 2.9.4.9.2 1.8.6 2.6 1.1.8.5 1.5 1 2.1 1.7.6.7 1.1 1.4 1.6 2.2.4.8.8 1.7 1 2.7.2 1 .3 2 .3 3.1zm-19 0c0 .9.1 1.8.2 2.6.2.8.4 1.6.7 2.3.3.7.7 1.4 1.2 2 .5.6 1 1.1 1.7 1.6.6.4 1.3.8 2.1 1 .8.2 1.6.4 2.5.4.9 0 1.8-.1 2.5-.4.8-.2 1.5-.6 2.1-1 .6-.4 1.2-1 1.6-1.6.5-.6.9-1.3 1.2-2 .3-.7.6-1.5.7-2.3.2-.8.2-1.7.2-2.6 0-.9-.1-1.7-.2-2.6-.2-.8-.4-1.6-.7-2.3-.3-.7-.7-1.4-1.2-2-.5-.6-1-1.1-1.6-1.5-.6-.4-1.3-.8-2.1-1-.8-.2-1.6-.4-2.5-.4-.9 0-1.7.1-2.4.3-.8.2-1.4.6-2.1 1-.6.4-1.2.9-1.7 1.5s-.9 1.3-1.2 2-.6 1.5-.8 2.4c-.1.8-.2 1.7-.2 2.6zM139.3 30.1c0 .3-.1.5-.3.7-.2.2-.4.3-.7.3-.3 0-.5-.1-.7-.3-.2-.2-.3-.4-.3-.7V9.9c0-.3.1-.5.3-.7.2-.2.4-.3.7-.3.3 0 .5.1.7.3.2.2.3.4.3.7v20.2zM157.2 13.8c-.1 0-.2.1-.3.1-.2 0-.4-.1-.5-.3-.2-.4-.5-.9-.8-1.3-.3-.4-.7-.7-1.1-1-.4-.3-.9-.5-1.4-.7s-1.1-.3-1.7-.3c-.6 0-1.2.1-1.8.3-.6.2-1.1.4-1.6.8s-.8.8-1.1 1.3c-.3.5-.4 1.1-.4 1.8 0 .6.1 1.1.3 1.5.2.4.5.8.9 1.1.4.3.8.6 1.2.8.4.2.9.4 1.4.5.6.2 1.2.4 1.8.5l1.8.6c.6.2 1.1.5 1.7.8.5.3 1 .6 1.4 1.1.4.4.7.9.9 1.5.2.6.3 1.3.3 2.1 0 .7-.1 1.3-.3 1.8-.2.6-.4 1.1-.8 1.5-.3.5-.7.9-1.2 1.2-.5.4-1 .7-1.5.9-.5.2-1.1.4-1.8.5-.6.1-1.3.2-2 .2-1 0-1.8-.1-2.6-.4-.7-.2-1.4-.6-1.9-1s-1-.9-1.4-1.4c-.4-.5-.7-1.1-.9-1.7-.1-.2-.1-.3 0-.5s.2-.3.3-.4c.1 0 .2-.1.3-.1.1 0 .2 0 .3.1.1.1.2.1.2.3.2.5.5 1 .9 1.4.3.4.7.8 1.2 1.2.5.3 1 .6 1.6.8.6.2 1.3.3 2 .3.4 0 .9 0 1.3-.1s.8-.2 1.2-.4c.4-.2.8-.4 1.1-.6.3-.3.6-.5.9-.9.2-.3.4-.7.6-1.1.1-.4.2-.9.2-1.4 0-.4 0-.8-.1-1.2-.1-.4-.2-.7-.5-1-.2-.3-.5-.6-.8-.8-.3-.2-.8-.5-1.2-.7-.5-.2-1.1-.4-1.7-.7-.7-.2-1.4-.4-2.2-.7-.7-.2-1.3-.4-1.9-.7-.6-.3-1.1-.6-1.6-1.1-.5-.4-.8-.9-1.1-1.6-.3-.6-.4-1.3-.4-2.2 0-.9.2-1.8.6-2.5.4-.7.9-1.3 1.5-1.8s1.4-.9 2.2-1.1c.8-.3 1.7-.4 2.6-.4.7 0 1.4.1 2 .3.6.2 1.2.5 1.8.8.5.4 1 .8 1.4 1.3.4.5.7 1 .9 1.7.1.2.1.3 0 .5 0 .3-.1.4-.2.5z"/></g></svg>